<svg xmlns="http://www.w3.org/2000/svg" viewBox="0 0 32 32">
  <rect width="32" height="32" fill="#0a0a0b"/>
  <circle cx="16" cy="16" r="14.6" fill="none" stroke="#1c1c20" stroke-width="2.4"/>
  <circle cx="16" cy="16" r="13.4" fill="none" stroke="#a9a9b2" stroke-width="1.4"/>
  <g fill="#e7e5e0">
    <polygon points="14.42,12.76 14.03,3.56 17.97,3.56 17.58,12.76" />
    <polygon points="18.59,13.5 27.23,10.28 28.44,14.03 19.56,16.5" />
    <polygon points="19.18,17.69 24.91,24.91 21.72,27.23 16.63,19.55" />
    <polygon points="15.37,19.55 10.28,27.23 7.09,24.91 12.82,17.69" />
    <polygon points="12.44,16.5 3.56,14.03 4.77,10.28 13.41,13.5" />
  </g>
  <circle cx="16" cy="16" r="3.8" fill="#0a0a0b" stroke="#ff5a1f" stroke-width="1.8"/>
  <g fill="#a9a9b2">
    <circle cx="19.29" cy="11.47" r="0.85"/>
    <circle cx="21.33" cy="17.73" r="0.85"/>
    <circle cx="16.0" cy="21.6" r="0.85"/>
    <circle cx="10.67" cy="17.73" r="0.85"/>
    <circle cx="12.71" cy="11.47" r="0.85"/>
  </g>
</svg>
