<svg xmlns="http://www.w3.org/2000/svg" viewBox="0 0 512 512">
  <rect width="512" height="512" fill="#0a0a0b"/>
  <circle cx="256" cy="256" r="233.6" fill="none" stroke="#1c1c20" stroke-width="38"/>
  <circle cx="256" cy="256" r="214.4" fill="none" stroke="#a9a9b2" stroke-width="8"/>
  <g fill="#e7e5e0">
    <polygon points="230.7,204.2 224.5,56.9 287.5,56.9 281.3,204.2" />
    <polygon points="297.4,216.0 435.6,164.5 455.1,224.5 313.0,264.0" />
    <polygon points="306.9,283.0 398.6,398.6 347.5,435.6 266.0,312.7" />
    <polygon points="246.0,312.7 164.5,435.6 113.4,398.6 205.1,283.0" />
    <polygon points="199.0,264.0 56.9,224.5 76.4,164.5 214.6,216.0" />
  </g>
  <circle cx="256" cy="256" r="60.8" fill="#0a0a0b" stroke="#ff5a1f" stroke-width="16"/>
  <g fill="#a9a9b2">
    <circle cx="308.7" cy="183.5" r="13.6"/>
    <circle cx="341.2" cy="283.7" r="13.6"/>
    <circle cx="256.0" cy="345.6" r="13.6"/>
    <circle cx="170.8" cy="283.7" r="13.6"/>
    <circle cx="203.3" cy="183.5" r="13.6"/>
  </g>
</svg>
