<svg xmlns="http://www.w3.org/2000/svg" viewBox="0 0 1024 1024">
  <rect width="1024" height="1024" fill="#0a0a0b"/>

  <g transform="translate(512,392)">
    <circle r="233.6" fill="none" stroke="#1c1c20" stroke-width="30"/>
    <circle r="214.4" fill="none" stroke="#a9a9b2" stroke-width="7"/>
    <g fill="#e7e5e0">
      <polygon points="-25.3,-51.8 -31.5,-199.1 31.5,-199.1 25.3,-51.8" />
      <polygon points="41.4,-40.0 179.6,-91.5 199.1,-31.5 57.0,8.0" />
      <polygon points="50.9,27.0 142.6,142.6 91.5,179.6 10.0,56.7" />
      <polygon points="-10.0,56.7 -91.5,179.6 -142.6,142.6 -50.9,27.0" />
      <polygon points="-57.0,8.0 -199.1,-31.5 -179.6,-91.5 -41.4,-40.0" />
    </g>
    <circle r="60.8" fill="#0a0a0b" stroke="#ff5a1f" stroke-width="15"/>
    <g fill="#ff7a45">
      <circle cx="52.7" cy="-72.5" r="13.6"/>
      <circle cx="85.2" cy="27.7" r="13.6"/>
      <circle cx="0" cy="89.6" r="13.6"/>
      <circle cx="-85.2" cy="27.7" r="13.6"/>
      <circle cx="-52.7" cy="-72.5" r="13.6"/>
    </g>
  </g>

  <text x="512" y="730" text-anchor="middle" font-family="Arial, Helvetica, sans-serif" font-weight="800" font-size="92" letter-spacing="2">
    <tspan fill="#f3f1ec">MONO</tspan><tspan fill="#ff7a45">FORGE</tspan>
  </text>
  <text x="512" y="778" text-anchor="middle" font-family="Arial, Helvetica, sans-serif" font-weight="600" font-size="27" letter-spacing="5" fill="#a9a9b2">JANTES FORGÉES SUR MESURE</text>
</svg>
